<svg xmlns="http://www.w3.org/2000/svg" xmlns:xlink="http://www.w3.org/1999/xlink" width="500" zoomAndPan="magnify" viewBox="0 0 375 374.999991" height="500" preserveAspectRatio="xMidYMid meet" version="1.0"><defs><clipPath id="98d28f74ad"><path d="M 34.261719 81.980469 L 222.640625 81.980469 L 222.640625 293.019531 L 34.261719 293.019531 Z M 34.261719 81.980469 " clip-rule="nonzero"/></clipPath><clipPath id="8e26729460"><path d="M 185 130.078125 L 232 130.078125 L 232 254 L 185 254 Z M 185 130.078125 " clip-rule="nonzero"/></clipPath><clipPath id="561e9d1c6c"><path d="M 291 130.078125 L 330 130.078125 L 330 193 L 291 193 Z M 291 130.078125 " clip-rule="nonzero"/></clipPath><clipPath id="a0509a4470"><path d="M 202.007812 205.589844 L 329.320312 205.589844 L 329.320312 292.964844 L 202.007812 292.964844 Z M 202.007812 205.589844 " clip-rule="nonzero"/></clipPath><clipPath id="1b3f715ae8"><path d="M 172.15625 174.972656 L 340.652344 174.972656 L 340.652344 277.40625 L 172.15625 277.40625 Z M 172.15625 174.972656 " clip-rule="nonzero"/></clipPath><clipPath id="10864521e0"><path d="M 340.675781 174.972656 L 334.761719 212.304688 L 327.402344 206.066406 C 313.699219 223.417969 290.195312 243.507812 265.347656 257.9375 C 245.507812 269.464844 224.816406 277.375 207.574219 277.40625 C 199.285156 277.417969 191.6875 275.253906 185.671875 271.683594 C 170.871094 262.886719 165.652344 245.539062 183.324219 231.007812 C 180.953125 233.546875 174.089844 250.269531 185.671875 257.59375 C 191.164062 261.070312 200.808594 262.429688 217.054688 259.15625 C 219.039062 258.753906 221.019531 258.285156 222.996094 257.742188 C 245.117188 251.691406 266.367188 237.253906 282.5625 223.578125 C 283.988281 222.375 285.371094 221.179688 286.714844 220 C 302.484375 206.09375 312.484375 193.855469 312.128906 193.320312 C 311.371094 192.183594 305.554688 188.011719 305.554688 188.011719 Z M 340.675781 174.972656 " clip-rule="nonzero"/></clipPath><clipPath id="838c1389a5"><path d="M 340.675781 174.972656 L 334.761719 212.304688 L 327.402344 206.066406 C 313.699219 223.417969 290.195312 243.507812 265.347656 257.9375 C 245.507812 269.464844 224.816406 277.375 207.574219 277.40625 C 199.285156 277.417969 191.6875 275.253906 185.671875 271.683594 C 170.871094 262.886719 165.652344 245.539062 183.324219 231.007812 C 180.953125 233.546875 174.089844 250.269531 185.671875 257.59375 C 191.164062 261.070312 200.808594 262.429688 217.054688 259.15625 C 219.039062 258.753906 221.019531 258.285156 222.996094 257.742188 C 245.117188 251.691406 266.367188 237.253906 282.5625 223.578125 C 283.988281 222.375 285.371094 221.179688 286.714844 220 C 302.484375 206.09375 312.484375 193.855469 312.128906 193.320312 C 311.371094 192.183594 305.554688 188.011719 305.554688 188.011719 L 340.675781 174.972656 " clip-rule="nonzero"/></clipPath><radialGradient gradientTransform="matrix(1, 0, 0, 1, 337.619076, 177.180816)" gradientUnits="userSpaceOnUse" r="105.027572" cx="0" id="2ac3ad27e6" cy="0" fx="0" fy="0"><stop stop-opacity="1" stop-color="rgb(50.004578%, 50.804138%, 52.003479%)" offset="0"/><stop stop-opacity="1" stop-color="rgb(49.742126%, 50.541687%, 51.741028%)" offset="0.0078125"/><stop stop-opacity="1" stop-color="rgb(49.536133%, 50.337219%, 51.53656%)" offset="0.0117188"/><stop stop-opacity="1" stop-color="rgb(49.328613%, 50.1297%, 51.329041%)" offset="0.0234375"/><stop stop-opacity="1" stop-color="rgb(49.064636%, 49.865723%, 51.065063%)" offset="0.0351562"/><stop stop-opacity="1" stop-color="rgb(48.803711%, 49.604797%, 50.804138%)" offset="0.046875"/><stop stop-opacity="1" stop-color="rgb(48.674011%, 49.473572%, 50.674438%)" offset="0.0507812"/><stop stop-opacity="1" stop-color="rgb(48.538208%, 49.339294%, 50.538635%)" offset="0.0546875"/><stop stop-opacity="1" stop-color="rgb(48.396301%, 49.197388%, 50.396729%)" offset="0.0585938"/><stop stop-opacity="1" stop-color="rgb(48.262024%, 49.055481%, 50.256348%)" offset="0.0625"/><stop stop-opacity="1" stop-color="rgb(48.196411%, 48.791504%, 49.992371%)" offset="0.0664062"/><stop stop-opacity="1" stop-color="rgb(47.999573%, 48.599243%, 49.798584%)" offset="0.078125"/><stop stop-opacity="1" stop-color="rgb(47.65625%, 48.405457%, 49.606323%)" offset="0.0898438"/><stop stop-opacity="1" stop-color="rgb(47.441101%, 48.143005%, 49.343872%)" offset="0.101562"/><stop stop-opacity="1" stop-color="rgb(47.30072%, 48.001099%, 49.201965%)" offset="0.105469"/><stop stop-opacity="1" stop-color="rgb(47.164917%, 47.860718%, 49.060059%)" offset="0.109375"/><stop stop-opacity="1" stop-color="rgb(47.099304%, 47.645569%, 48.794556%)" offset="0.113281"/><stop stop-opacity="1" stop-color="rgb(46.903992%, 47.499084%, 48.403931%)" offset="0.125"/><stop stop-opacity="1" stop-color="rgb(46.636963%, 47.433472%, 48.204041%)" offset="0.136719"/><stop stop-opacity="1" stop-color="rgb(46.495056%, 47.296143%, 48.199463%)" offset="0.140625"/><stop stop-opacity="1" stop-color="rgb(46.362305%, 47.154236%, 48.191833%)" offset="0.144531"/><stop stop-opacity="1" stop-color="rgb(46.296692%, 46.888733%, 47.988892%)" offset="0.148438"/><stop stop-opacity="1" stop-color="rgb(46.098328%, 46.498108%, 47.648621%)" offset="0.160156"/><stop stop-opacity="1" stop-color="rgb(45.707703%, 46.107483%, 47.306824%)" offset="0.171875"/><stop stop-opacity="1" stop-color="rgb(45.4422%, 45.906067%, 47.105408%)" offset="0.183594"/><stop stop-opacity="1" stop-color="rgb(45.23468%, 45.828247%, 47.029114%)" offset="0.1875"/><stop stop-opacity="1" stop-color="rgb(45.033264%, 45.562744%, 46.763611%)" offset="0.199219"/><stop stop-opacity="1" stop-color="rgb(44.902039%, 45.301819%, 46.502686%)" offset="0.210938"/><stop stop-opacity="1" stop-color="rgb(44.772339%, 45.172119%, 46.37146%)" offset="0.214844"/><stop stop-opacity="1" stop-color="rgb(44.636536%, 45.036316%, 46.237183%)" offset="0.21875"/><stop stop-opacity="1" stop-color="rgb(44.494629%, 44.894409%, 46.095276%)" offset="0.222656"/><stop stop-opacity="1" stop-color="rgb(44.354248%, 44.761658%, 45.953369%)" offset="0.226562"/><stop stop-opacity="1" stop-color="rgb(44.091797%, 44.696045%, 45.690918%)" offset="0.230469"/><stop stop-opacity="1" stop-color="rgb(43.899536%, 44.497681%, 45.498657%)" offset="0.242188"/><stop stop-opacity="1" stop-color="rgb(43.70575%, 44.107056%, 45.304871%)" offset="0.253906"/><stop stop-opacity="1" stop-color="rgb(43.505859%, 43.90564%, 45.10498%)" offset="0.261719"/><stop stop-opacity="1" stop-color="rgb(43.400574%, 43.800354%, 45.001221%)" offset="0.269531"/><stop stop-opacity="1" stop-color="rgb(43.200684%, 43.600464%, 44.801331%)" offset="0.273438"/><stop stop-opacity="1" stop-color="rgb(42.997742%, 43.397522%, 44.596863%)" offset="0.28125"/><stop stop-opacity="1" stop-color="rgb(42.796326%, 43.197632%, 44.396973%)" offset="0.289062"/><stop stop-opacity="1" stop-color="rgb(42.630005%, 43.006897%, 44.206238%)" offset="0.296875"/><stop stop-opacity="1" stop-color="rgb(42.480469%, 42.807007%, 44.006348%)" offset="0.304688"/><stop stop-opacity="1" stop-color="rgb(42.29126%, 42.617798%, 43.791199%)" offset="0.3125"/><stop stop-opacity="1" stop-color="rgb(42.09137%, 42.468262%, 43.487549%)" offset="0.320312"/><stop stop-opacity="1" stop-color="rgb(41.900635%, 42.300415%, 43.196106%)" offset="0.328125"/><stop stop-opacity="1" stop-color="rgb(41.700745%, 42.100525%, 43.005371%)" offset="0.335938"/><stop stop-opacity="1" stop-color="rgb(41.496277%, 41.897583%, 42.805481%)" offset="0.34375"/><stop stop-opacity="1" stop-color="rgb(41.296387%, 41.696167%, 42.616272%)" offset="0.351562"/><stop stop-opacity="1" stop-color="rgb(41.093445%, 41.493225%, 42.466736%)" offset="0.359375"/><stop stop-opacity="1" stop-color="rgb(40.893555%, 41.293335%, 42.298889%)" offset="0.367188"/><stop stop-opacity="1" stop-color="rgb(40.70282%, 41.1026%, 42.098999%)" offset="0.375"/><stop stop-opacity="1" stop-color="rgb(40.50293%, 40.90271%, 41.908264%)" offset="0.382812"/><stop stop-opacity="1" stop-color="rgb(40.299988%, 40.699768%, 41.708374%)" offset="0.390625"/><stop stop-opacity="1" stop-color="rgb(40.100098%, 40.499878%, 41.491699%)" offset="0.398438"/><stop stop-opacity="1" stop-color="rgb(39.897156%, 40.296936%, 41.291809%)" offset="0.40625"/><stop stop-opacity="1" stop-color="rgb(39.697266%, 40.097046%, 41.101074%)" offset="0.414062"/><stop stop-opacity="1" stop-color="rgb(39.506531%, 39.906311%, 40.901184%)" offset="0.421875"/><stop stop-opacity="1" stop-color="rgb(39.306641%, 39.706421%, 40.698242%)" offset="0.429688"/><stop stop-opacity="1" stop-color="rgb(39.091492%, 39.491272%, 40.498352%)" offset="0.4375"/><stop stop-opacity="1" stop-color="rgb(38.890076%, 39.291382%, 40.29541%)" offset="0.445312"/><stop stop-opacity="1" stop-color="rgb(38.699341%, 39.100647%, 40.09552%)" offset="0.453125"/><stop stop-opacity="1" stop-color="rgb(38.499451%, 38.900757%, 39.904785%)" offset="0.460938"/><stop stop-opacity="1" stop-color="rgb(38.296509%, 38.696289%, 39.704895%)" offset="0.46875"/><stop stop-opacity="1" stop-color="rgb(38.096619%, 38.496399%, 39.489746%)" offset="0.476562"/><stop stop-opacity="1" stop-color="rgb(37.893677%, 38.293457%, 39.18457%)" offset="0.484375"/><stop stop-opacity="1" stop-color="rgb(37.693787%, 37.994385%, 38.893127%)" offset="0.492188"/><stop stop-opacity="1" stop-color="rgb(37.454224%, 37.698364%, 38.604736%)" offset="0.5"/><stop stop-opacity="1" stop-color="rgb(37.239075%, 37.550354%, 38.340759%)" offset="0.515625"/><stop stop-opacity="1" stop-color="rgb(37.098694%, 37.449646%, 38.198853%)" offset="0.519531"/><stop stop-opacity="1" stop-color="rgb(36.962891%, 37.341309%, 38.058472%)" offset="0.523438"/><stop stop-opacity="1" stop-color="rgb(36.897278%, 37.09259%, 37.792969%)" offset="0.527344"/><stop stop-opacity="1" stop-color="rgb(36.701965%, 36.701965%, 37.599182%)" offset="0.539062"/><stop stop-opacity="1" stop-color="rgb(36.31134%, 36.31134%, 37.45575%)" offset="0.550781"/><stop stop-opacity="1" stop-color="rgb(36.045837%, 36.106873%, 37.243652%)" offset="0.5625"/><stop stop-opacity="1" stop-color="rgb(35.903931%, 36.099243%, 37.103271%)" offset="0.566406"/><stop stop-opacity="1" stop-color="rgb(35.766602%, 36.094666%, 36.962891%)" offset="0.570312"/><stop stop-opacity="1" stop-color="rgb(35.699463%, 35.896301%, 36.697388%)" offset="0.574219"/><stop stop-opacity="1" stop-color="rgb(35.50415%, 35.505676%, 36.500549%)" offset="0.585938"/><stop stop-opacity="1" stop-color="rgb(35.240173%, 35.240173%, 36.433411%)" offset="0.597656"/><stop stop-opacity="1" stop-color="rgb(35.098267%, 35.098267%, 36.297607%)" offset="0.601562"/><stop stop-opacity="1" stop-color="rgb(34.963989%, 34.963989%, 36.157227%)" offset="0.605469"/><stop stop-opacity="1" stop-color="rgb(34.898376%, 34.898376%, 35.891724%)" offset="0.609375"/><stop stop-opacity="1" stop-color="rgb(34.701538%, 34.701538%, 35.501099%)" offset="0.621094"/><stop stop-opacity="1" stop-color="rgb(34.312439%, 34.312439%, 35.302734%)" offset="0.632812"/><stop stop-opacity="1" stop-color="rgb(34.107971%, 34.107971%, 35.197449%)" offset="0.640625"/><stop stop-opacity="1" stop-color="rgb(33.990479%, 33.990479%, 34.997559%)" offset="0.644531"/><stop stop-opacity="1" stop-color="rgb(33.790588%, 33.790588%, 34.794617%)" offset="0.652344"/><stop stop-opacity="1" stop-color="rgb(33.599854%, 33.599854%, 34.594727%)" offset="0.660156"/><stop stop-opacity="1" stop-color="rgb(33.399963%, 33.399963%, 34.403992%)" offset="0.667969"/><stop stop-opacity="1" stop-color="rgb(33.209229%, 33.209229%, 34.204102%)" offset="0.675781"/><stop stop-opacity="1" stop-color="rgb(33.009338%, 33.009338%, 34.00116%)" offset="0.683594"/><stop stop-opacity="1" stop-color="rgb(32.794189%, 32.794189%, 33.80127%)" offset="0.691406"/><stop stop-opacity="1" stop-color="rgb(32.594299%, 32.594299%, 33.598328%)" offset="0.699219"/><stop stop-opacity="1" stop-color="rgb(32.348633%, 32.348633%, 33.306885%)" offset="0.707031"/><stop stop-opacity="1" stop-color="rgb(32.099915%, 32.099915%, 33.007812%)" offset="0.722656"/><stop stop-opacity="1" stop-color="rgb(31.900024%, 31.900024%, 32.792664%)" offset="0.730469"/><stop stop-opacity="1" stop-color="rgb(31.799316%, 31.697083%, 32.514954%)" offset="0.738281"/><stop stop-opacity="1" stop-color="rgb(31.70166%, 31.497192%, 32.272339%)" offset="0.746094"/><stop stop-opacity="1" stop-color="rgb(31.506348%, 31.399536%, 32.199097%)" offset="0.753906"/><stop stop-opacity="1" stop-color="rgb(31.341553%, 31.336975%, 32.136536%)" offset="0.757812"/><stop stop-opacity="1" stop-color="rgb(31.210327%, 31.210327%, 32.009888%)" offset="0.761719"/><stop stop-opacity="1" stop-color="rgb(31.079102%, 31.079102%, 31.880188%)" offset="0.765625"/><stop stop-opacity="1" stop-color="rgb(30.944824%, 30.944824%, 31.744385%)" offset="0.769531"/><stop stop-opacity="1" stop-color="rgb(30.802917%, 30.802917%, 31.602478%)" offset="0.773438"/><stop stop-opacity="1" stop-color="rgb(30.665588%, 30.661011%, 31.460571%)" offset="0.777344"/><stop stop-opacity="1" stop-color="rgb(30.599976%, 30.395508%, 31.195068%)" offset="0.78125"/><stop stop-opacity="1" stop-color="rgb(30.404663%, 30.198669%, 30.999756%)" offset="0.792969"/><stop stop-opacity="1" stop-color="rgb(30.13916%, 30.133057%, 30.934143%)" offset="0.804688"/><stop stop-opacity="1" stop-color="rgb(29.997253%, 29.997253%, 30.796814%)" offset="0.808594"/><stop stop-opacity="1" stop-color="rgb(29.862976%, 29.852295%, 30.662537%)" offset="0.8125"/><stop stop-opacity="1" stop-color="rgb(29.792786%, 29.588318%, 30.593872%)" offset="0.816406"/><stop stop-opacity="1" stop-color="rgb(29.592896%, 29.397583%, 30.392456%)" offset="0.824219"/><stop stop-opacity="1" stop-color="rgb(29.399109%, 29.202271%, 30.001831%)" offset="0.832031"/><stop stop-opacity="1" stop-color="rgb(29.206848%, 29.00238%, 29.801941%)" offset="0.839844"/><stop stop-opacity="1" stop-color="rgb(29.006958%, 28.897095%, 29.696655%)" offset="0.847656"/><stop stop-opacity="1" stop-color="rgb(28.889465%, 28.697205%, 29.496765%)" offset="0.851562"/><stop stop-opacity="1" stop-color="rgb(28.689575%, 28.494263%, 29.293823%)" offset="0.859375"/><stop stop-opacity="1" stop-color="rgb(28.49884%, 28.294373%, 29.093933%)" offset="0.867188"/><stop stop-opacity="1" stop-color="rgb(28.29895%, 28.005981%, 28.805542%)" offset="0.875"/><stop stop-opacity="1" stop-color="rgb(28.134155%, 27.757263%, 28.541565%)" offset="0.890625"/><stop stop-opacity="1" stop-color="rgb(27.998352%, 27.648926%, 28.399658%)" offset="0.894531"/><stop stop-opacity="1" stop-color="rgb(27.859497%, 27.542114%, 28.257751%)" offset="0.898438"/><stop stop-opacity="1" stop-color="rgb(27.644348%, 27.293396%, 27.993774%)" offset="0.902344"/><stop stop-opacity="1" stop-color="rgb(27.49939%, 27.099609%, 27.799988%)" offset="0.914062"/><stop stop-opacity="1" stop-color="rgb(27.307129%, 26.907349%, 27.655029%)" offset="0.921875"/><stop stop-opacity="1" stop-color="rgb(27.107239%, 26.707458%, 27.505493%)" offset="0.929688"/><stop stop-opacity="1" stop-color="rgb(27.001953%, 26.602173%, 27.401733%)" offset="0.9375"/><stop stop-opacity="1" stop-color="rgb(26.795959%, 26.400757%, 27.201843%)" offset="0.941406"/><stop stop-opacity="1" stop-color="rgb(26.493835%, 26.296997%, 27.098083%)" offset="0.945312"/><stop stop-opacity="1" stop-color="rgb(26.298523%, 26.101685%, 26.902771%)" offset="0.957031"/><stop stop-opacity="1" stop-color="rgb(26.107788%, 25.71106%, 26.512146%)" offset="0.964844"/><stop stop-opacity="1" stop-color="rgb(25.898743%, 25.497437%, 26.298523%)" offset="0.972656"/><stop stop-opacity="1" stop-color="rgb(25.689697%, 25.289917%, 26.089478%)" offset="0.984375"/><stop stop-opacity="1" stop-color="rgb(25.498962%, 25.099182%, 25.898743%)" offset="1"/></radialGradient></defs><g clip-path="url(#98d28f74ad)"><path fill="#14192d" d="M 34.269531 81.980469 L 84.128906 81.980469 C 56.324219 81.980469 34.269531 105.472656 34.269531 134.824219 Z M 153.496094 154.335938 C 153.496094 114.203125 122.929688 81.980469 84.847656 81.980469 C 95.128906 82.253906 103.363281 90.933594 103.363281 101.769531 L 103.363281 216.683594 C 103.363281 258.96875 135.921875 293.019531 175.773438 293.019531 C 163.503906 293.019531 153.496094 282.460938 153.496094 269.527344 Z M 222.867188 81.980469 L 172.511719 81.980469 C 200.039062 81.980469 222.867188 105.472656 222.867188 134.824219 Z M 222.867188 81.980469 " fill-opacity="1" fill-rule="nonzero"/></g><g clip-path="url(#8e26729460)"><path fill="#14192d" d="M 192.980469 252.285156 C 201.605469 255.074219 214.746094 253.929688 231.117188 245.667969 C 231.074219 245.597656 231.027344 245.53125 230.984375 245.464844 C 228.253906 241.0625 226.28125 236.054688 225.066406 230.441406 C 223.855469 224.828125 223.246094 218.914062 223.246094 212.6875 L 223.246094 130.082031 L 185.925781 130.082031 L 185.925781 212.6875 C 185.925781 223.3125 187.25 233.480469 189.90625 243.1875 C 190.769531 246.34375 191.796875 249.375 192.980469 252.285156 " fill-opacity="1" fill-rule="nonzero"/></g><g clip-path="url(#561e9d1c6c)"><path fill="#14192d" d="M 314.980469 160.9375 C 321.691406 150.875 326.253906 142.671875 329.296875 135.984375 L 329.296875 130.082031 L 291.976562 130.082031 L 291.976562 192.308594 C 299.441406 183.128906 307.125 172.714844 314.980469 160.9375 " fill-opacity="1" fill-rule="nonzero"/></g><g clip-path="url(#a0509a4470)"><path fill="#14192d" d="M 329.296875 205.679688 L 329.296875 212.6875 C 329.296875 213.296875 329.292969 213.90625 329.285156 214.511719 C 329.140625 225.050781 327.738281 234.914062 325.085938 244.097656 C 322.28125 253.808594 317.957031 262.304688 312.117188 269.585938 C 306.273438 276.867188 298.839844 282.597656 289.816406 286.769531 C 280.785156 290.941406 270.050781 293.027344 257.613281 293.027344 C 244.714844 293.027344 233.714844 290.828125 224.609375 286.425781 C 222.574219 285.441406 220.621094 284.382812 218.753906 283.246094 C 212.28125 279.320312 206.839844 274.5 202.421875 268.789062 C 202.28125 268.605469 202.148438 268.425781 202.011719 268.242188 C 202.511719 268.132812 203.238281 267.972656 204.148438 267.769531 C 210.050781 266.460938 223.789062 263.359375 235.226562 260.402344 C 238.875 259.457031 242.289062 258.527344 245.140625 257.679688 C 248.738281 259.089844 252.894531 259.800781 257.613281 259.800781 C 263.980469 259.800781 269.367188 258.476562 273.769531 255.816406 C 278.167969 253.164062 281.734375 249.636719 284.464844 245.234375 C 286.03125 242.707031 287.335938 239.96875 288.378906 237.015625 C 291.761719 235.496094 294.070312 234.53125 294.394531 234.539062 C 295.746094 234.570312 327.402344 206.066406 327.402344 206.066406 C 327.402344 206.066406 328.097656 205.929688 329.296875 205.679688 " fill-opacity="1" fill-rule="nonzero"/></g><path fill="#004aad" d="M 183.683594 237.566406 C 183.5625 237.664062 183.441406 237.757812 183.324219 237.859375 C 183.457031 237.710938 183.582031 237.613281 183.683594 237.566406 " fill-opacity="1" fill-rule="nonzero"/><path fill="#004aad" d="M 329.296875 205.679688 L 329.296875 212.6875 C 329.296875 213.296875 329.292969 213.90625 329.285156 214.511719 L 327.402344 212.917969 C 305.035156 241.234375 256.554688 276.855469 218.753906 283.246094 C 212.28125 279.320312 206.839844 274.5 202.421875 268.789062 C 202.28125 268.605469 202.148438 268.425781 202.011719 268.242188 C 202.511719 268.132812 203.238281 267.972656 204.148438 267.769531 C 207.902344 267.554688 212.179688 266.988281 217.054688 266.007812 C 223.179688 264.773438 229.265625 262.84375 235.226562 260.402344 C 238.875 259.457031 242.289062 258.527344 245.140625 257.679688 C 248.738281 259.089844 252.894531 259.800781 257.613281 259.800781 C 263.980469 259.800781 269.367188 258.476562 273.769531 255.816406 C 278.167969 253.164062 281.734375 249.636719 284.464844 245.234375 C 286.03125 242.707031 287.335938 239.96875 288.378906 237.015625 C 291.761719 235.496094 294.070312 234.53125 294.394531 234.539062 C 295.746094 234.570312 327.402344 206.066406 327.402344 206.066406 C 327.402344 206.066406 328.097656 205.929688 329.296875 205.679688 " fill-opacity="1" fill-rule="nonzero"/><g clip-path="url(#1b3f715ae8)"><g clip-path="url(#10864521e0)"><g clip-path="url(#838c1389a5)"><path fill="url(#2ac3ad27e6)" d="M 172.15625 174.972656 L 172.15625 277.40625 L 340.652344 277.40625 L 340.652344 174.972656 Z M 172.15625 174.972656 " fill-rule="nonzero"/></g></g></g></svg>